<mxfile host="app.diagrams.net" agent="Mozilla/5.0 (Macintosh; Intel Mac OS X 10_15_7) AppleWebKit/605.1.15 (KHTML, like Gecko) Version/17.4.1 Safari/605.1.15" version="24.7.14">
  <diagram name="Страница — 1" id="9K4I7PGA_2Y6Zll-9Sv7">
    <mxGraphModel dx="1161" dy="621" grid="1" gridSize="10" guides="1" tooltips="1" connect="1" arrows="1" fold="1" page="1" pageScale="1" pageWidth="827" pageHeight="1169" math="0" shadow="0">
      <root>
        <mxCell id="0" />
        <mxCell id="1" parent="0" />
        <mxCell id="xpzPx3MhX0-IFwnlB4Ry-10" value="" style="edgeStyle=orthogonalEdgeStyle;rounded=0;orthogonalLoop=1;jettySize=auto;html=1;" edge="1" parent="1" source="xpzPx3MhX0-IFwnlB4Ry-1" target="xpzPx3MhX0-IFwnlB4Ry-9">
          <mxGeometry relative="1" as="geometry" />
        </mxCell>
        <mxCell id="xpzPx3MhX0-IFwnlB4Ry-1" value="Начало" style="ellipse;whiteSpace=wrap;html=1;" vertex="1" parent="1">
          <mxGeometry x="210" width="120" height="80" as="geometry" />
        </mxCell>
        <mxCell id="xpzPx3MhX0-IFwnlB4Ry-13" value="" style="edgeStyle=orthogonalEdgeStyle;rounded=0;orthogonalLoop=1;jettySize=auto;html=1;" edge="1" parent="1" source="xpzPx3MhX0-IFwnlB4Ry-2" target="xpzPx3MhX0-IFwnlB4Ry-12">
          <mxGeometry relative="1" as="geometry" />
        </mxCell>
        <mxCell id="xpzPx3MhX0-IFwnlB4Ry-33" value="да" style="edgeLabel;html=1;align=center;verticalAlign=middle;resizable=0;points=[];" vertex="1" connectable="0" parent="xpzPx3MhX0-IFwnlB4Ry-13">
          <mxGeometry x="-0.7476" relative="1" as="geometry">
            <mxPoint x="20" as="offset" />
          </mxGeometry>
        </mxCell>
        <mxCell id="xpzPx3MhX0-IFwnlB4Ry-31" style="edgeStyle=orthogonalEdgeStyle;rounded=0;orthogonalLoop=1;jettySize=auto;html=1;exitX=1;exitY=0.5;exitDx=0;exitDy=0;" edge="1" parent="1" source="xpzPx3MhX0-IFwnlB4Ry-2" target="xpzPx3MhX0-IFwnlB4Ry-30">
          <mxGeometry relative="1" as="geometry" />
        </mxCell>
        <mxCell id="xpzPx3MhX0-IFwnlB4Ry-32" value="нет" style="edgeLabel;html=1;align=center;verticalAlign=middle;resizable=0;points=[];" vertex="1" connectable="0" parent="xpzPx3MhX0-IFwnlB4Ry-31">
          <mxGeometry x="-0.7898" relative="1" as="geometry">
            <mxPoint as="offset" />
          </mxGeometry>
        </mxCell>
        <mxCell id="xpzPx3MhX0-IFwnlB4Ry-2" value="C из n по k с перестановками" style="rhombus;whiteSpace=wrap;html=1;" vertex="1" parent="1">
          <mxGeometry x="170" y="220" width="200" height="90" as="geometry" />
        </mxCell>
        <mxCell id="xpzPx3MhX0-IFwnlB4Ry-11" value="" style="edgeStyle=orthogonalEdgeStyle;rounded=0;orthogonalLoop=1;jettySize=auto;html=1;" edge="1" parent="1" source="xpzPx3MhX0-IFwnlB4Ry-9" target="xpzPx3MhX0-IFwnlB4Ry-2">
          <mxGeometry relative="1" as="geometry" />
        </mxCell>
        <mxCell id="xpzPx3MhX0-IFwnlB4Ry-9" value="n = 10,&lt;div&gt;k = 4,&lt;/div&gt;&lt;div&gt;z = 25000,&lt;/div&gt;&lt;div&gt;Zs = 90 * 1000 * 1000,&lt;/div&gt;&lt;div&gt;K_Max = 0&lt;/div&gt;" style="whiteSpace=wrap;html=1;" vertex="1" parent="1">
          <mxGeometry x="205" y="100" width="130" height="80" as="geometry" />
        </mxCell>
        <mxCell id="xpzPx3MhX0-IFwnlB4Ry-15" value="" style="edgeStyle=orthogonalEdgeStyle;rounded=0;orthogonalLoop=1;jettySize=auto;html=1;" edge="1" parent="1" source="xpzPx3MhX0-IFwnlB4Ry-12" target="xpzPx3MhX0-IFwnlB4Ry-14">
          <mxGeometry relative="1" as="geometry" />
        </mxCell>
        <mxCell id="xpzPx3MhX0-IFwnlB4Ry-35" value="да" style="edgeLabel;html=1;align=center;verticalAlign=middle;resizable=0;points=[];" vertex="1" connectable="0" parent="xpzPx3MhX0-IFwnlB4Ry-15">
          <mxGeometry x="-0.3276" y="1" relative="1" as="geometry">
            <mxPoint x="9" as="offset" />
          </mxGeometry>
        </mxCell>
        <mxCell id="xpzPx3MhX0-IFwnlB4Ry-27" style="edgeStyle=orthogonalEdgeStyle;rounded=0;orthogonalLoop=1;jettySize=auto;html=1;exitX=0;exitY=0.5;exitDx=0;exitDy=0;" edge="1" parent="1" source="xpzPx3MhX0-IFwnlB4Ry-12">
          <mxGeometry relative="1" as="geometry">
            <mxPoint x="150" y="370.42857142857144" as="targetPoint" />
          </mxGeometry>
        </mxCell>
        <mxCell id="xpzPx3MhX0-IFwnlB4Ry-34" value="нет" style="edgeLabel;html=1;align=center;verticalAlign=middle;resizable=0;points=[];" vertex="1" connectable="0" parent="xpzPx3MhX0-IFwnlB4Ry-27">
          <mxGeometry x="-0.0352" y="-2" relative="1" as="geometry">
            <mxPoint x="1" y="-10" as="offset" />
          </mxGeometry>
        </mxCell>
        <mxCell id="xpzPx3MhX0-IFwnlB4Ry-12" value="sum(k1-k4) == n" style="rhombus;whiteSpace=wrap;html=1;" vertex="1" parent="1">
          <mxGeometry x="205" y="330" width="130" height="80" as="geometry" />
        </mxCell>
        <mxCell id="xpzPx3MhX0-IFwnlB4Ry-17" value="" style="edgeStyle=orthogonalEdgeStyle;rounded=0;orthogonalLoop=1;jettySize=auto;html=1;" edge="1" parent="1" source="xpzPx3MhX0-IFwnlB4Ry-14" target="xpzPx3MhX0-IFwnlB4Ry-16">
          <mxGeometry relative="1" as="geometry" />
        </mxCell>
        <mxCell id="xpzPx3MhX0-IFwnlB4Ry-14" value="z1 = k1 * z&lt;div&gt;z2 = k2 * z&lt;br&gt;&lt;/div&gt;&lt;div&gt;z3 = k3 * z&lt;br&gt;&lt;/div&gt;&lt;div&gt;z4 = k4 * z&lt;/div&gt;" style="whiteSpace=wrap;html=1;" vertex="1" parent="1">
          <mxGeometry x="210" y="450" width="120" height="60" as="geometry" />
        </mxCell>
        <mxCell id="xpzPx3MhX0-IFwnlB4Ry-19" value="" style="edgeStyle=orthogonalEdgeStyle;rounded=0;orthogonalLoop=1;jettySize=auto;html=1;" edge="1" parent="1" source="xpzPx3MhX0-IFwnlB4Ry-16" target="xpzPx3MhX0-IFwnlB4Ry-18">
          <mxGeometry relative="1" as="geometry" />
        </mxCell>
        <mxCell id="xpzPx3MhX0-IFwnlB4Ry-37" value="да" style="edgeLabel;html=1;align=center;verticalAlign=middle;resizable=0;points=[];" vertex="1" connectable="0" parent="xpzPx3MhX0-IFwnlB4Ry-19">
          <mxGeometry x="0.2003" y="1" relative="1" as="geometry">
            <mxPoint x="9" as="offset" />
          </mxGeometry>
        </mxCell>
        <mxCell id="xpzPx3MhX0-IFwnlB4Ry-28" style="edgeStyle=orthogonalEdgeStyle;rounded=0;orthogonalLoop=1;jettySize=auto;html=1;exitX=0;exitY=0.5;exitDx=0;exitDy=0;" edge="1" parent="1" source="xpzPx3MhX0-IFwnlB4Ry-16">
          <mxGeometry relative="1" as="geometry">
            <mxPoint x="150" y="590" as="targetPoint" />
          </mxGeometry>
        </mxCell>
        <mxCell id="xpzPx3MhX0-IFwnlB4Ry-36" value="нет" style="edgeLabel;html=1;align=center;verticalAlign=middle;resizable=0;points=[];" vertex="1" connectable="0" parent="xpzPx3MhX0-IFwnlB4Ry-28">
          <mxGeometry x="-0.1126" relative="1" as="geometry">
            <mxPoint y="-10" as="offset" />
          </mxGeometry>
        </mxCell>
        <mxCell id="xpzPx3MhX0-IFwnlB4Ry-16" value="sum(z1-z4) &amp;lt;= Zs" style="rhombus;whiteSpace=wrap;html=1;" vertex="1" parent="1">
          <mxGeometry x="205" y="550" width="130" height="80" as="geometry" />
        </mxCell>
        <mxCell id="xpzPx3MhX0-IFwnlB4Ry-21" value="" style="edgeStyle=orthogonalEdgeStyle;rounded=0;orthogonalLoop=1;jettySize=auto;html=1;" edge="1" parent="1" source="xpzPx3MhX0-IFwnlB4Ry-18" target="xpzPx3MhX0-IFwnlB4Ry-20">
          <mxGeometry relative="1" as="geometry" />
        </mxCell>
        <mxCell id="xpzPx3MhX0-IFwnlB4Ry-18" value="K = D1 * D2 * D3 * D4" style="whiteSpace=wrap;html=1;" vertex="1" parent="1">
          <mxGeometry x="210" y="660" width="120" height="60" as="geometry" />
        </mxCell>
        <mxCell id="xpzPx3MhX0-IFwnlB4Ry-25" value="" style="edgeStyle=orthogonalEdgeStyle;rounded=0;orthogonalLoop=1;jettySize=auto;html=1;" edge="1" parent="1" source="xpzPx3MhX0-IFwnlB4Ry-20" target="xpzPx3MhX0-IFwnlB4Ry-24">
          <mxGeometry relative="1" as="geometry" />
        </mxCell>
        <mxCell id="xpzPx3MhX0-IFwnlB4Ry-40" value="да" style="edgeLabel;html=1;align=center;verticalAlign=middle;resizable=0;points=[];" vertex="1" connectable="0" parent="xpzPx3MhX0-IFwnlB4Ry-25">
          <mxGeometry x="-0.1264" y="3" relative="1" as="geometry">
            <mxPoint x="7" as="offset" />
          </mxGeometry>
        </mxCell>
        <mxCell id="xpzPx3MhX0-IFwnlB4Ry-38" style="edgeStyle=orthogonalEdgeStyle;rounded=0;orthogonalLoop=1;jettySize=auto;html=1;" edge="1" parent="1" source="xpzPx3MhX0-IFwnlB4Ry-20">
          <mxGeometry relative="1" as="geometry">
            <mxPoint x="150" y="800" as="targetPoint" />
          </mxGeometry>
        </mxCell>
        <mxCell id="xpzPx3MhX0-IFwnlB4Ry-39" value="нет" style="edgeLabel;html=1;align=center;verticalAlign=middle;resizable=0;points=[];" vertex="1" connectable="0" parent="xpzPx3MhX0-IFwnlB4Ry-38">
          <mxGeometry x="0.1996" y="-2" relative="1" as="geometry">
            <mxPoint y="-8" as="offset" />
          </mxGeometry>
        </mxCell>
        <mxCell id="xpzPx3MhX0-IFwnlB4Ry-20" value="K &amp;gt; K_Max" style="rhombus;whiteSpace=wrap;html=1;" vertex="1" parent="1">
          <mxGeometry x="215" y="760" width="110" height="80" as="geometry" />
        </mxCell>
        <mxCell id="xpzPx3MhX0-IFwnlB4Ry-26" style="edgeStyle=orthogonalEdgeStyle;rounded=0;orthogonalLoop=1;jettySize=auto;html=1;exitX=0.5;exitY=1;exitDx=0;exitDy=0;entryX=0;entryY=0.5;entryDx=0;entryDy=0;" edge="1" parent="1" source="xpzPx3MhX0-IFwnlB4Ry-24" target="xpzPx3MhX0-IFwnlB4Ry-2">
          <mxGeometry relative="1" as="geometry" />
        </mxCell>
        <mxCell id="xpzPx3MhX0-IFwnlB4Ry-24" value="&lt;div&gt;K = K_Max&lt;/div&gt;Вывод K" style="whiteSpace=wrap;html=1;" vertex="1" parent="1">
          <mxGeometry x="210" y="930" width="120" height="60" as="geometry" />
        </mxCell>
        <mxCell id="xpzPx3MhX0-IFwnlB4Ry-30" value="Конец&lt;div&gt;&lt;br&gt;&lt;/div&gt;" style="ellipse;whiteSpace=wrap;html=1;" vertex="1" parent="1">
          <mxGeometry x="380" y="335" width="120" height="70" as="geometry" />
        </mxCell>
      </root>
    </mxGraphModel>
  </diagram>
</mxfile>
